<svg width="798" height="227" viewBox="0 0 798 227" fill="none" xmlns="http://www.w3.org/2000/svg">
<g clip-path="url(#clip0_244_741)">
<path d="M41.0434 0.786894C24.7212 7.62448 6.7776 26.9171 1.11049 51.1506C-6.06669 81.8473 23.8004 94.8298 26.2501 90.5788C29.1333 85.5775 20.8984 83.8862 19.2031 67.9587C17.0125 47.3869 26.5763 24.4003 38.6138 14.3144C40.8501 12.4406 40.744 15.0486 40.744 19.8728C40.744 28.4996 40.2675 105.943 40.2675 122.105C40.2675 143.975 39.3642 150.881 37.7414 157.705C36.0984 164.62 33.4555 169.293 35.4568 171.093C37.6944 173.106 47.2474 168.317 52.7776 160.599C59.4085 151.343 61.7293 140.226 62.1467 128.153C62.6501 113.6 62.6286 90.5077 62.6501 77.3359C62.6689 65.2553 62.8528 29.8809 62.438 8.61508C62.336 3.39897 47.8702 -2.07351 41.0434 0.786894Z" fill="white"/>
<path d="M620.641 103.136C620.115 114.505 617.598 123.393 614.474 129.661C608.427 141.797 595.88 145.564 590.552 128.12C587.649 118.611 587.513 102.729 589.601 89.4596C591.725 75.9415 597.658 65.7321 607.482 66.6529C617.172 67.563 621.708 80.0489 620.641 103.136ZM457.282 173.676C457.151 192.567 454.178 209.131 447.802 213.941C438.759 220.763 426.605 215.646 429.121 201.861C431.348 189.662 441.88 177.205 457.308 161.983C457.308 161.983 457.34 165.454 457.282 173.676ZM454.813 103.025C454.26 113.38 451.575 123.783 448.646 129.661C442.601 141.797 429.962 145.59 424.724 128.12C421.143 116.183 422.001 100.735 423.772 91.0006C426.072 78.371 431.645 66.6542 441.654 66.6542C451.386 66.6542 456.184 77.3308 454.813 103.025ZM360.18 102.868C359.587 113.834 357.448 123.002 354.014 129.661C347.802 141.713 335.512 145.535 330.092 128.12C326.184 115.562 327.515 98.4395 329.14 89.1898C331.552 75.4636 337.593 65.7321 347.022 66.6542C356.708 67.6005 361.417 80.0489 360.18 102.868ZM793.857 115.677C791.489 115.677 790.409 118.119 789.515 122.226C786.414 136.512 783.155 139.736 778.952 139.736C774.257 139.736 770.038 132.664 768.954 118.504C768.101 107.37 768.238 86.873 769.328 66.4838C769.551 62.2945 768.395 58.1495 757.159 54.0677C752.324 52.312 745.296 49.7267 741.797 58.1737C731.909 82.0381 728.041 100.984 727.131 108.68C727.084 109.078 726.595 109.16 726.509 108.229C725.929 102.065 724.633 90.8623 724.472 67.3281C724.441 62.7361 723.468 58.8274 718.399 55.6274C715.111 53.5509 705.124 49.8784 701.528 54.2475C698.413 57.8207 694.805 67.4368 691.056 78.8355C688.009 88.0999 685.886 94.367 685.886 94.367C685.886 94.367 685.927 69.3697 685.963 59.8878C685.979 56.3106 683.525 55.1187 682.786 54.9026C679.456 53.9375 672.894 52.3227 670.109 52.3227C666.673 52.3227 665.831 54.2422 665.831 57.0408C665.831 57.4086 665.289 89.9522 665.289 112.709C665.289 113.699 665.29 114.776 665.294 115.923C663.394 126.382 657.23 140.58 650.527 140.58C643.815 140.58 640.649 134.645 640.649 107.515C640.649 91.6891 641.124 84.8059 641.358 73.3589C641.493 66.7657 641.755 61.7026 641.74 60.5536C641.69 57.0301 635.598 55.2542 632.763 54.5979C629.915 53.9375 627.439 53.6797 625.507 53.7898C622.771 53.9455 620.835 55.7388 620.835 58.2073C620.835 59.5321 620.85 62.0475 620.85 62.0475C617.327 56.5106 611.66 52.6569 607.889 51.5401C597.733 48.524 587.136 51.1979 579.143 62.3818C572.79 71.269 568.96 81.3348 567.453 95.7965C566.351 106.37 566.711 117.09 568.669 126.158C566.303 136.388 561.909 140.58 557.099 140.58C550.115 140.58 545.052 129.182 545.639 109.466C546.027 96.4999 548.622 87.3992 551.458 74.2341C552.668 68.622 551.685 65.6838 549.221 62.8677C546.96 60.2851 542.144 58.9657 535.221 60.5885C530.289 61.7455 523.238 62.9898 516.787 63.9455C516.787 63.9455 517.176 62.3925 517.496 59.6542C519.174 45.2945 503.57 46.4596 498.591 51.0462C495.619 53.7844 493.597 57.014 492.829 62.8207C491.611 72.0354 499.127 76.3818 499.127 76.3818C496.661 87.6704 490.617 102.414 484.376 113.074C481.034 118.786 478.477 123.018 475.176 127.517C475.164 125.842 475.155 124.166 475.15 122.499C475.074 98.7683 475.39 80.0932 475.529 73.3603C475.665 66.767 475.929 61.8381 475.915 60.6891C475.877 58.1133 474.372 57.1388 471.242 55.9066C468.474 54.8167 465.202 54.0623 461.807 53.7992C457.523 53.4663 454.941 55.7375 455.009 58.4247C455.022 58.9321 455.022 62.0475 455.022 62.0475C451.499 56.5106 445.831 52.6569 442.061 51.5401C431.905 48.5254 421.308 51.1979 413.315 62.3818C406.963 71.269 402.803 83.7401 401.625 95.6865C400.527 106.821 400.729 116.281 402.226 124.253C400.611 132.234 395.968 140.58 390.719 140.58C384.007 140.58 380.188 134.645 380.188 107.515C380.188 91.6891 380.664 84.8059 380.897 73.3603C381.033 66.767 381.295 61.7026 381.28 60.5549C381.23 57.0314 375.137 55.2556 372.303 54.5979C369.336 53.912 366.775 53.6596 364.809 53.8059C362.214 53.9979 360.39 56.3214 360.39 58.0542V62.0475C356.866 56.5106 351.199 52.6569 347.429 51.5401C337.273 48.5254 326.735 51.2408 318.682 62.3818C313.431 69.6462 309.18 77.6999 306.993 95.5281C306.36 100.68 306.081 105.505 306.117 110.014C304.023 122.821 294.775 137.579 287.21 137.579C282.783 137.579 278.567 128.993 278.567 110.693C278.567 86.3173 280.076 51.6126 280.331 48.2677C280.331 48.2677 289.889 48.1052 291.74 48.0838C296.508 48.0314 300.826 48.1442 307.176 47.8193C310.362 47.6569 313.43 36.226 310.143 34.8113C308.653 34.171 298.123 33.6099 293.948 33.5213C290.438 33.4422 280.666 32.7187 280.666 32.7187C280.666 32.7187 281.543 9.68242 281.747 7.24886C281.92 5.22067 279.296 4.17638 277.791 3.54282C274.132 1.99517 270.858 1.25423 266.978 0.454231C261.617 -0.651809 259.184 0.43007 258.709 4.9549C257.994 11.822 257.623 31.9361 257.623 31.9361C253.689 31.9361 240.25 31.167 236.315 31.167C232.658 31.167 228.712 46.8918 233.767 47.0851C239.583 47.3106 249.719 47.5066 256.438 47.7079C256.438 47.7079 256.139 82.9858 256.139 93.8784C256.139 95.0368 256.144 96.1522 256.151 97.2355C252.453 116.509 239.427 126.921 239.427 126.921C242.225 114.17 236.511 104.594 226.218 96.4878C222.426 93.5012 214.94 87.8462 206.564 81.6489C206.564 81.6489 211.415 76.869 215.717 67.2489C218.766 60.4341 218.897 52.6381 211.415 50.9187C199.053 48.0757 188.86 57.1549 185.819 66.8475C183.464 74.3576 184.72 79.9281 189.335 85.716C189.672 86.1388 190.037 86.571 190.414 87.0059C187.623 92.3844 183.79 99.6261 180.543 105.242C171.531 120.834 164.723 133.167 159.578 133.167C155.465 133.167 155.52 120.645 155.52 108.921C155.52 98.8153 156.266 83.6207 156.862 67.8891C157.06 62.6865 154.458 59.7227 150.097 57.0381C147.448 55.4073 141.793 52.2005 138.517 52.2005C133.615 52.2005 119.472 52.8677 106.108 91.524C104.423 96.3965 101.115 105.274 101.115 105.274L101.401 58.7885C101.401 57.6985 100.819 56.6448 99.4905 55.924C97.2381 54.7012 91.2234 52.2005 85.8757 52.2005C83.3281 52.2005 82.0556 53.3858 82.0556 55.7482L81.5898 128.476C81.5898 134.003 81.7334 140.449 82.2798 143.268C82.8247 146.09 83.7066 148.387 84.7979 149.754C85.8891 151.117 87.1509 152.158 89.2301 152.587C91.1657 152.986 101.767 154.347 102.317 150.296C102.978 145.441 103.003 140.19 108.57 120.606C117.235 90.116 128.532 75.2395 133.845 69.9563C134.774 69.0328 135.834 68.9777 135.783 70.4891C135.556 77.1737 134.759 93.8784 134.222 108.068C132.783 146.044 139.692 153.082 149.564 153.082C157.117 153.082 167.764 145.578 179.178 126.58C186.293 114.742 193.202 103.133 198.166 94.767C201.625 97.9697 205.507 101.415 209.386 105.097C218.401 113.653 221.36 121.783 219.397 129.496C217.895 135.393 212.238 141.469 202.171 135.563C199.237 133.839 197.984 132.508 195.034 130.566C193.449 129.523 191.029 129.21 189.578 130.304C185.809 133.146 183.653 136.76 182.422 141.235C181.225 145.59 185.586 147.892 190.107 149.905C193.999 151.638 202.366 153.209 207.701 153.387C228.49 154.082 245.144 143.35 256.737 115.664C258.813 139.575 267.645 153.104 282.99 153.104C293.249 153.104 303.535 139.844 308.033 126.798C309.324 132.116 311.235 136.74 313.704 140.652C325.528 159.386 348.466 155.354 359.988 139.445C363.551 134.529 364.093 132.763 364.093 132.763C365.774 147.784 377.87 153.033 384.797 153.033C392.554 153.033 400.563 149.366 406.176 136.728C406.834 138.1 407.552 139.41 408.336 140.652C420.16 159.386 443.099 155.354 454.621 139.445C455.164 138.699 455.635 138.022 456.048 137.414L456.386 147.281C456.386 147.281 449.813 153.311 445.778 157.01C427.997 173.307 414.489 185.668 413.496 200.062C412.231 218.417 427.108 225.238 438.38 226.132C450.329 227.081 460.58 220.474 466.872 211.229C472.409 203.09 476.033 185.575 475.767 168.276C475.661 161.348 475.486 152.54 475.35 143.099C481.591 135.85 488.623 126.688 495.099 115.966C502.155 104.28 509.717 88.5858 513.59 76.3724C513.59 76.3724 520.16 76.4287 527.172 75.9697C529.415 75.8234 530.06 76.2811 529.645 77.9254C529.144 79.912 520.786 112.151 528.414 133.627C533.635 148.329 545.406 153.06 552.384 153.06C560.554 153.06 568.368 146.89 572.556 137.729C573.061 138.751 573.588 139.739 574.164 140.652C585.988 159.386 608.846 155.329 620.449 139.445C623.068 135.861 624.554 132.763 624.554 132.763C627.043 148.309 639.133 153.112 646.058 153.112C653.272 153.112 660.117 150.155 665.672 137.013C665.904 142.799 666.269 147.531 666.846 149.022C667.198 149.935 669.248 151.08 670.739 151.633C677.337 154.08 684.068 152.923 686.558 152.419C688.282 152.07 689.627 150.686 689.811 147.113C690.295 137.731 689.998 121.967 692.842 110.25C697.617 90.5885 702.07 82.9616 704.183 79.1858C705.366 77.0704 706.7 76.7214 706.748 78.9603C706.848 83.4905 707.073 96.7939 708.923 114.668C710.281 127.813 712.096 135.583 713.49 138.042C717.47 145.074 722.386 145.407 726.388 145.407C728.935 145.407 734.26 144.704 733.783 140.229C733.551 138.048 733.958 124.567 738.665 105.197C741.739 92.5469 746.864 81.1187 748.712 76.9388C749.394 75.3979 749.711 76.6126 749.7 76.8489C749.311 85.5603 748.437 114.054 751.986 129.638C756.796 150.75 770.713 153.112 775.563 153.112C785.916 153.112 794.383 145.237 797.235 124.515C797.923 119.528 796.905 115.677 793.857 115.677Z" fill="white"/>
</g>
<defs>
<clipPath id="clip0_244_741">
<rect width="798" height="227" fill="white"/>
</clipPath>
</defs>
</svg>
