<svg width="254" height="59" viewBox="0 0 254 59" fill="none" xmlns="http://www.w3.org/2000/svg">
<path fill-rule="evenodd" clip-rule="evenodd" d="M5.31175 12.0026C6.65479 12.3682 8.55566 12.551 11.0144 12.551C13.5145 12.551 15.436 12.3682 16.779 12.0026C18.1426 11.6369 19.1137 11.0131 19.6923 10.1312C20.2708 9.22777 20.5601 7.94792 20.5601 6.29164C20.5601 4.61388 20.2708 3.33404 19.6923 2.45213C19.1137 1.54871 18.153 0.914172 16.81 0.548505C15.467 0.182834 13.5558 0 11.0764 0C8.59696 0 6.68578 0.182834 5.34274 0.548505C3.99974 0.914172 3.03899 1.54871 2.46046 2.45213C1.88193 3.33404 1.59267 4.61388 1.59267 6.29164C1.59267 7.94792 1.8716 9.22777 2.42947 10.1312C3.00799 11.0131 3.96875 11.6369 5.31175 12.0026ZM1.86682 15.7418C0.881611 15.6202 0 16.3852 0 17.3846V56.2071C0 57.1112 0.727881 57.8441 1.62577 57.8441H21.2925C22.1904 57.8441 22.9182 57.1112 22.9182 56.2071V17.4457C22.9182 16.4255 22.0009 15.6517 20.9959 15.7814C20.0892 15.8984 19.0844 16.0026 17.9814 16.0939C16.0281 16.2556 13.9409 16.3364 11.72 16.3364C8.36065 16.3364 5.07623 16.1382 1.86682 15.7418Z" fill="white"/>
<path d="M28.2327 16.4375C28.2327 15.5334 28.9606 14.8005 29.8584 14.8005H45.9777C46.5261 14.8005 47.0373 15.0786 47.3377 15.5404L47.7491 16.173C48.4002 17.1732 49.9364 17.1817 50.9093 16.4958C51.5468 16.0463 52.283 15.6489 53.1177 15.216C54.8837 14.2998 57.0512 13.8418 59.6198 13.8418C63.928 13.8418 67.0585 14.8813 69.0119 17.7913C70.9652 20.7013 71.9419 25.1875 71.9419 31.2499V56.207C71.9419 57.1111 71.214 57.844 70.3162 57.844H52.6564C51.7585 57.844 51.0307 57.1111 51.0307 56.207V31.5732C51.0307 30.4955 50.9902 29.7141 50.9102 29.2291C50.8495 28.8429 50.7662 28.5717 50.6597 28.4155C50.5995 28.3265 50.5141 28.255 50.42 28.2034C50.2908 28.1328 50.12 28.0974 49.9067 28.0974C49.4251 28.0974 49.1041 28.3534 48.9432 28.8654C48.8095 29.3504 48.7427 30.3203 48.7427 31.7753V56.207C48.7427 57.1111 48.0148 57.844 47.1169 57.844H29.8584C28.9606 57.844 28.2327 57.1111 28.2327 56.207V16.4375Z" fill="white"/>
<path d="M74.2845 16.8049C74.0502 15.7793 74.8238 14.8008 75.869 14.8008H93.5795C94.4514 14.8008 95.1677 15.493 95.204 16.3699L95.8217 31.3311L95.9711 38.4054C95.9773 38.6966 96.2133 38.9293 96.5026 38.9293C96.793 38.9293 97.0295 38.6949 97.034 38.4026L97.1462 31.3311L97.8002 16.3659C97.8386 15.4906 98.5545 14.8008 99.4243 14.8008H117.179C118.224 14.8008 118.998 15.7793 118.764 16.8049L109.678 56.5742C109.508 57.3175 108.851 57.8443 108.094 57.8443H84.9545C84.1969 57.8443 83.5396 57.3175 83.37 56.5742L74.2845 16.8049Z" fill="white"/>
<path d="M123.631 17.3851C123.631 16.3855 124.513 15.6205 125.498 15.7422C128.708 16.1386 131.992 16.3368 135.351 16.3368C137.572 16.3368 139.659 16.256 141.613 16.0943C142.716 16.003 143.72 15.8988 144.627 15.7818C145.632 15.652 146.549 16.4259 146.549 17.4461V56.2075C146.549 57.1116 145.821 57.8445 144.924 57.8445H125.257C124.359 57.8445 123.631 57.1116 123.631 56.2075V17.3851Z" fill="white"/>
<path d="M168.342 57.8447C164.115 57.8447 160.904 56.6323 158.71 54.207C156.542 51.7552 155.458 48.1583 155.458 43.4159V31.0689C155.458 30.1648 154.73 29.4319 153.832 29.4319H153.11C152.212 29.4319 151.485 28.6989 151.485 27.7948V17.461C151.485 16.9107 151.759 16.3971 152.216 16.0942L156.601 13.183C156.8 13.0509 156.968 12.8763 157.093 12.6717L161.767 4.99136C162.062 4.50702 162.585 4.21119 163.149 4.20977L176.546 4.17579C177.446 4.1735 178.176 4.9071 178.176 5.81287V13.1641C178.176 14.0682 178.904 14.8011 179.802 14.8011H180.965C181.863 14.8011 182.591 15.5341 182.591 16.4382V27.7948C182.591 28.6989 181.863 29.4319 180.965 29.4319H179.762C178.864 29.4319 178.136 30.1648 178.136 31.0689V41.2739C178.136 42.4594 178.604 43.0523 179.54 43.0523H180.889C181.785 43.0523 182.513 43.7823 182.515 44.6848L182.546 56.2031C182.549 57.1088 181.82 57.8447 180.921 57.8447H168.342Z" fill="white"/>
<path d="M134.647 12.551C132.188 12.551 130.287 12.3682 128.944 12.0025C127.601 11.6369 126.64 11.0131 126.062 10.1312C125.504 9.22777 125.225 7.94792 125.225 6.29164C125.225 4.61388 125.514 3.33404 126.093 2.45213C126.671 1.54871 127.632 0.914172 128.975 0.548505C130.318 0.182834 132.229 0 134.709 0C137.188 0 139.099 0.182834 140.443 0.548505C141.786 0.914172 142.746 1.54871 143.325 2.45213C143.903 3.33404 144.192 4.61388 144.192 6.29164C144.192 7.94792 143.903 9.22777 143.325 10.1312C142.746 11.0131 141.775 11.6369 140.412 12.0025C139.069 12.3682 137.147 12.551 134.647 12.551Z" fill="white"/>
<path fill-rule="evenodd" clip-rule="evenodd" d="M200.675 56.2841C205.342 57.5306 211.947 58.1539 220.49 58.1539C229.177 58.1539 235.854 57.5306 240.521 56.2841C245.259 55.0381 248.633 52.9116 250.644 49.9055C252.654 46.8263 253.659 42.464 253.659 36.8185C253.659 31.0997 252.654 26.7373 250.644 23.7313C248.633 20.6519 245.295 18.489 240.628 17.2426C235.962 15.9962 229.321 15.373 220.706 15.373C212.09 15.373 205.45 15.9962 200.783 17.2426C196.116 18.489 192.778 20.6519 190.768 23.7313C188.757 26.7373 187.752 31.0997 187.752 36.8185C187.752 42.464 188.721 46.8263 190.66 49.9055C192.67 52.9116 196.009 55.0381 200.675 56.2841ZM210.346 35.9512C209.901 35.9512 209.539 36.3148 209.539 36.7635C209.539 37.2121 209.901 37.5758 210.346 37.5758H231.065C231.51 37.5758 231.872 37.2121 231.872 36.7635C231.872 36.3148 231.51 35.9512 231.065 35.9512H210.346Z" fill="#3F5077"/>
</svg>
